<?xml version="1.0" encoding="utf-8"?>

<!DOCTYPE svg PUBLIC "-//W3C//DTD SVG 1.1//EN" "http://www.w3.org/Graphics/SVG/1.1/DTD/svg11.dtd">
<!-- Uploaded to: SVG Repo, www.svgrepo.com, Generator: SVG Repo Mixer Tools -->
<svg height="800px" width="800px" version="1.1" id="_x32_" xmlns="http://www.w3.org/2000/svg" xmlns:xlink="http://www.w3.org/1999/xlink" 
	 viewBox="0 0 512 512"  xml:space="preserve">

<g>
	<path  d="M224.609,156.127v60.57c0,17.336,14.043,31.391,31.39,31.391c17.348,0,31.391-14.055,31.391-31.391v-60.57
		c0-17.334-14.043-31.391-31.391-31.391C238.653,124.736,224.609,138.793,224.609,156.127z" fill="#8A8A8A"/>
	<path  d="M269.027,0v100.336c25.38,5.936,44.378,28.633,44.378,55.792v60.57c0,31.659-25.735,57.407-57.406,57.407
		c-31.646,0-57.418-25.748-57.418-57.407v-60.57c0-27.159,19.038-49.856,44.418-55.792V0C154.775,6.672,85.193,80.23,85.193,170.146
		v171.061C85.193,435.519,161.663,512,256,512c94.324,0,170.807-76.481,170.807-170.794V170.146
		C426.807,80.23,357.252,6.672,269.027,0z" fill="#8A8A8A"/>
</g>
</svg>